<svg width="34" height="32" viewBox="0 0 34 32" fill="none" xmlns="http://www.w3.org/2000/svg">
<path d="M21.5907 11.6667C23.2015 11.6667 24.5073 12.9725 24.5073 14.5833V20H24.5007V20.4167C24.5007 21.107 23.941 21.6667 23.2507 21.6667C22.5603 21.6667 22.0007 21.107 22.0007 20.4167V16.6667H22.0073V14.5833C22.0073 14.3532 21.8208 14.1667 21.5907 14.1667H12.4205C12.1904 14.1667 12.0039 14.3532 12.0039 14.5833V20H12.0007V20.4167C12.0007 21.107 11.441 21.6667 10.7507 21.6667C10.0603 21.6667 9.50065 21.107 9.50065 20.4167V16.6667H9.50387V14.5833C9.50387 12.9725 10.8097 11.6667 12.4205 11.6667H21.5907ZM31.1673 14.5833V20.4167C31.1673 21.107 31.727 21.6667 32.4173 21.6667C33.1077 21.6667 33.6673 21.107 33.6673 20.4167V14.5833C33.6673 12.9725 32.3615 11.6667 30.7507 11.6667L25.1252 11.6651C25.6973 12.3575 26.0702 13.2208 26.1553 14.167L30.7507 14.1667C30.9808 14.1667 31.1673 14.3532 31.1673 14.5833ZM0.333984 20.4167C0.333984 21.107 0.893634 21.6667 1.58398 21.6667C2.27433 21.6667 2.83398 21.107 2.83398 20.4167V14.5833C2.83398 14.3532 3.02053 14.1667 3.25065 14.1667L7.85585 14.167C7.94105 13.2208 8.31383 12.3575 8.88612 11.6651L3.25065 11.6667C1.63982 11.6667 0.333984 12.9725 0.333984 14.5833V20.4167ZM17.0007 0C19.7622 0 22.0007 2.23858 22.0007 5C22.0007 7.76142 19.7622 10 17.0007 10C14.2392 10 12.0007 7.76142 12.0007 5C12.0007 2.23858 14.2392 0 17.0007 0ZM17.0007 2.5C15.62 2.5 14.5007 3.61928 14.5007 5C14.5007 6.38072 15.62 7.5 17.0007 7.5C18.3813 7.5 19.5007 6.38072 19.5007 5C19.5007 3.61928 18.3813 2.5 17.0007 2.5ZM27.834 1.66667C30.1352 1.66667 32.0007 3.53215 32.0007 5.83333C32.0007 8.13452 30.1352 10 27.834 10C25.5328 10 23.6673 8.13452 23.6673 5.83333C23.6673 3.53215 25.5328 1.66667 27.834 1.66667ZM27.834 4.16667C26.9135 4.16667 26.1673 4.91287 26.1673 5.83333C26.1673 6.7538 26.9135 7.5 27.834 7.5C28.7545 7.5 29.5007 6.7538 29.5007 5.83333C29.5007 4.91287 28.7545 4.16667 27.834 4.16667ZM6.16732 1.66667C8.4685 1.66667 10.334 3.53215 10.334 5.83333C10.334 8.13452 8.4685 10 6.16732 10C3.86613 10 2.00065 8.13452 2.00065 5.83333C2.00065 3.53215 3.86613 1.66667 6.16732 1.66667ZM6.16732 4.16667C5.24685 4.16667 4.50065 4.91287 4.50065 5.83333C4.50065 6.7538 5.24685 7.5 6.16732 7.5C7.08778 7.5 7.83398 6.7538 7.83398 5.83333C7.83398 4.91287 7.08778 4.16667 6.16732 4.16667ZM1.58398 23.3333C0.893634 23.3333 0.333984 23.893 0.333984 24.5833V25.4167C0.333984 28.8685 3.1322 31.6667 6.58398 31.6667H27.4173C30.8692 31.6667 33.6673 28.8685 33.6673 25.4167V24.5833C33.6673 23.893 33.1077 23.3333 32.4173 23.3333H1.58398ZM6.58398 29.1667C4.65375 29.1667 3.06413 27.7083 2.85687 25.8333H31.1445C30.9372 27.7083 29.3475 29.1667 27.4173 29.1667H6.58398Z" fill="#212121" fill-opacity="0.6"/>
</svg>
