<svg width="28" height="28" viewBox="0 0 28 28" fill="none" xmlns="http://www.w3.org/2000/svg">
<path d="M17.3345 14.1833C17.9877 14.8523 18.3573 15.6627 18.625 16.7834L18.741 17.3155L18.9499 18.4196C19.0538 18.9385 19.1342 19.2267 19.2465 19.4786C19.5973 20.2647 20.215 21.0703 21.1079 21.8888C21.4641 22.2154 21.4881 22.769 21.1616 23.1251C20.835 23.4813 20.2816 23.5053 19.9254 23.1788C18.8668 22.2084 18.1049 21.2148 17.6484 20.1918C17.4748 19.8026 17.369 19.4329 17.2443 18.8152L16.9988 17.5312L16.984 17.461C16.7732 16.4703 16.5127 15.8465 16.0824 15.4059C15.2509 14.5543 13.3329 14.7794 12.8197 15.591C12.1643 16.6274 11.997 18.3862 12.5174 20.1592C12.9196 21.529 13.4532 22.877 14.1185 24.2037C14.3352 24.6356 14.1607 25.1614 13.7288 25.3781C13.2969 25.5947 12.771 25.4202 12.5543 24.9883C11.8424 23.5689 11.2702 22.1233 10.8383 20.6521C10.1833 18.4205 10.3998 16.1433 11.3406 14.6556C12.4525 12.8974 15.7061 12.5157 17.3345 14.1833ZM14.5746 16.8845C15.0576 16.8685 15.4621 17.247 15.4782 17.73C15.5383 19.5351 16.1253 21.2801 17.163 22.7515L17.3922 23.0625L17.7423 23.5175C18.0371 23.9004 17.9656 24.4499 17.5827 24.7446C17.2346 25.0126 16.7488 24.9778 16.442 24.6816L16.3556 24.5849L16.0054 24.1299C14.6018 22.3061 13.8056 20.0882 13.7291 17.7881C13.7131 17.3051 14.0916 16.9006 14.5746 16.8845ZM10.2471 10.9548C12.7108 9.13059 15.9338 9.22961 18.1017 10.6231C19.1865 11.3205 20.0082 12.1336 20.5545 13.0653C20.7989 13.4823 20.659 14.0184 20.2421 14.2628C19.8252 14.5071 19.2891 14.3673 19.0447 13.9505C18.6461 13.2705 18.0203 12.6511 17.1554 12.0952C15.5658 11.0735 13.1289 10.9986 11.2884 12.3612C9.37674 13.7766 8.5719 16.2011 8.81158 18.7568C8.94581 20.1882 9.37716 21.6352 10.1103 23.1012C10.3265 23.5335 10.1513 24.059 9.71907 24.2752C9.28686 24.4914 8.76126 24.3162 8.54511 23.8841C7.71785 22.2297 7.22433 20.5741 7.06922 18.9201C6.77718 15.806 7.78173 12.7802 10.2471 10.9548ZM20.9567 15.9726C21.4394 15.9479 21.8507 16.3189 21.8756 16.8016C21.9118 17.5052 22.0856 18.0805 22.3906 18.5433C22.6466 18.9319 22.8743 19.1564 23.048 19.2429L23.119 19.2716C23.5816 19.4115 23.8432 19.8999 23.7033 20.3625C23.5635 20.825 23.0752 21.0866 22.6126 20.9467C21.975 20.754 21.4265 20.2607 20.9293 19.5061C20.4443 18.7702 20.1794 17.8934 20.1279 16.8915C20.1031 16.4089 20.4742 15.9975 20.9567 15.9726ZM12.2626 7.11834C12.4609 7.55901 12.2645 8.07704 11.8238 8.27537C9.67697 9.24166 8.09728 10.6187 7.05955 12.4155C5.76077 14.6643 5.41043 17.2932 5.70121 19.5089C5.76409 19.9881 5.42665 20.4274 4.94751 20.4903C4.46837 20.5532 4.02897 20.2157 3.96609 19.7366C3.62915 17.1692 4.02986 14.1622 5.54412 11.5403C6.77124 9.41552 8.63347 7.79224 11.1056 6.67957C11.5462 6.48122 12.0643 6.67767 12.2626 7.11834ZM14.9969 6.20007C17.1318 6.24382 19.2569 7.22482 21.3654 9.10082C23.4921 10.993 24.7737 13.5652 25.2088 16.7778C25.2736 17.2566 24.938 17.6973 24.4591 17.7622C23.9803 17.8271 23.5395 17.4914 23.4746 17.0125C23.0936 14.1991 22.0032 12.0108 20.2021 10.4082C18.3828 8.7895 16.6381 7.98406 14.961 7.94969C14.4779 7.9398 14.0943 7.5401 14.1042 7.05695C14.1141 6.57381 14.5138 6.19016 14.9969 6.20007ZM6.98017 6.21687C7.30156 6.57774 7.26957 7.13083 6.9087 7.45224C6.59588 7.73084 6.26764 8.06339 5.9249 8.44975C5.6025 8.81318 5.27223 9.28494 4.93752 9.86443C4.69583 10.2829 4.16066 10.4262 3.74219 10.1845C3.32373 9.94279 3.18044 9.40762 3.42214 8.98916C3.81236 8.31357 4.20908 7.74687 4.61577 7.28843C5.00211 6.85292 5.37814 6.47195 5.7448 6.1454C6.10567 5.82399 6.65876 5.85599 6.98017 6.21687ZM14.6633 2.75662C17.2214 2.87644 19.364 3.57585 21.1147 4.92769C21.4971 5.22304 21.5678 5.77254 21.2724 6.15503C20.977 6.53751 20.4275 6.60814 20.0451 6.31279C18.5922 5.19089 16.7953 4.60841 14.5815 4.5047C12.3611 4.40069 10.5429 4.83613 9.08103 5.6469C8.63308 5.89536 8.13041 5.77103 7.8775 5.35924C7.62459 4.94746 7.73826 4.40682 8.16515 4.15571C9.95683 3.10181 12.1116 2.63709 14.6633 2.75662Z" fill="#36EBCA"/>
</svg>
