<svg width="26" height="32" viewBox="0 0 26 32" fill="none" xmlns="http://www.w3.org/2000/svg">
<path d="M8.00065 19.3333L18.0007 9.33333M8.83398 10.1667H8.85065M17.1673 18.5H17.184M24.6673 31V4.33333C24.6673 3.44928 24.3161 2.60143 23.691 1.97631C23.0659 1.35119 22.218 1 21.334 1H4.66732C3.78326 1 2.93542 1.35119 2.31029 1.97631C1.68517 2.60143 1.33398 3.44928 1.33398 4.33333V31L7.16732 27.6667L13.0007 31L18.834 27.6667L24.6673 31ZM9.66732 10.1667C9.66732 10.3877 9.57952 10.5996 9.42324 10.7559C9.26696 10.9122 9.055 11 8.83398 11C8.61297 11 8.40101 10.9122 8.24473 10.7559C8.08845 10.5996 8.00065 10.3877 8.00065 10.1667C8.00065 9.94565 8.08845 9.73369 8.24473 9.57741C8.40101 9.42113 8.61297 9.33333 8.83398 9.33333C9.055 9.33333 9.26696 9.42113 9.42324 9.57741C9.57952 9.73369 9.66732 9.94565 9.66732 10.1667ZM18.0007 18.5C18.0007 18.721 17.9129 18.933 17.7566 19.0893C17.6003 19.2455 17.3883 19.3333 17.1673 19.3333C16.9463 19.3333 16.7343 19.2455 16.5781 19.0893C16.4218 18.933 16.334 18.721 16.334 18.5C16.334 18.279 16.4218 18.067 16.5781 17.9107C16.7343 17.7545 16.9463 17.6667 17.1673 17.6667C17.3883 17.6667 17.6003 17.7545 17.7566 17.9107C17.9129 18.067 18.0007 18.279 18.0007 18.5Z" stroke="#212121" stroke-opacity="0.6" stroke-width="2" stroke-linecap="round" stroke-linejoin="round"/>
</svg>
