<svg width="31" height="34" viewBox="0 0 31 34" fill="none" xmlns="http://www.w3.org/2000/svg">
<path d="M14.9993 24.6673V19.6673M14.9993 19.6673V14.6673M14.9993 19.6673H9.99935M14.9993 19.6673H19.9993M29.9994 8.00065L26.666 4.66732M11.666 1.33398H18.3327M14.9993 33.0007C11.4631 33.0007 8.07174 31.5959 5.57126 29.0954C3.07077 26.5949 1.66602 23.2035 1.66602 19.6673C1.66602 16.1311 3.07077 12.7397 5.57126 10.2392C8.07174 7.73874 11.4631 6.33398 14.9993 6.33398C18.5356 6.33398 21.927 7.73874 24.4274 10.2392C26.9279 12.7397 28.3327 16.1311 28.3327 19.6673C28.3327 23.2035 26.9279 26.5949 24.4274 29.0954C21.927 31.5959 18.5356 33.0007 14.9993 33.0007Z" stroke="#212121" stroke-opacity="0.6" stroke-width="1.5" stroke-linecap="round" stroke-linejoin="round"/>
</svg>
